# xmcd
#
# Track frame offsets:
#	150
#	16404
#	32461
#	47347
#	65273
#	79352
#	94910
#	112522
#	130190
#	148461
#	165449
#	180680
#	199053
#	215973
#
# Disc length: 3084 seconds
#
# Revision: 1
# Processed by: cddbd v1.5.2PL0 Copyright (c) Steve Scherf et al.
# Submitted via: audiograbber 1.83.01
#
DISCID=be0c0a0e
DTITLE=Barry P. Foley - Ruby´s Cafe
DYEAR=2013
DGENRE=Country
TTITLE0=RUBY'S CAFE
TTITLE1=DOWN TO THE ISLANDS
TTITLE2=MAMAS BISCUITS AND GRAVY
TTITLE3=WHEN ALL YOUR DREAMS COME TRUE
TTITLE4=NEVER LEAVING TEXAS
TTITLE5=FIFTY AND COUNTING
TTITLE6=BOOM CHICKA BOOM
TTITLE7=VFW AND THE MAIDEN'S PRAYER
TTITLE8=GET THIS CRAP OUT OF MY COUNTRY
TTITLE9=HEROES AND FRIENDS
TTITLE10=YOU AIN'T NO COUNTRY SINGER
TTITLE11=TIME FOR THE BLUES
TTITLE12=CROOKED ROAD
TTITLE13=DADDY'S FUNERAL
EXTD=
EXTT0=
EXTT1=
EXTT2=
EXTT3=
EXTT4=
EXTT5=
EXTT6=
EXTT7=
EXTT8=
EXTT9=
EXTT10=
EXTT11=
EXTT12=
EXTT13=
PLAYORDER=
